<svg width="64" height="64" viewBox="0 0 64 64" fill="none" xmlns="http://www.w3.org/2000/svg">
  <rect width="64" height="64" rx="18" fill="#0B1F3B"/>
  <path d="M11.53 36.469C17.776 22.1 32.743 18.175 48.058 20.643" stroke="url(#paint0_linear_0_1)" stroke-width="4.5" stroke-linecap="round"/>
  <path d="M21 20C16.582 20 13 23.582 13 28V38C13 41.866 16.134 45 20 45H21V20Z" fill="#800020"/>
  <path d="M21 20V45H23C26.866 45 30 41.866 30 38V28C30 23.582 26.418 20 22 20H21Z" fill="#BFC8D3"/>
  <path d="M23 25H29L34 30" stroke="#20385A" stroke-width="2.7" stroke-linecap="round"/>
  <path d="M23 32H31" stroke="#20385A" stroke-width="2.7" stroke-linecap="round"/>
  <path d="M23 39H28L33 44" stroke="#20385A" stroke-width="2.7" stroke-linecap="round"/>
  <circle cx="35" cy="30" r="3.5" fill="#F8FAFC" stroke="#20385A" stroke-width="2.7"/>
  <circle cx="37" cy="32" r="3.5" fill="#F8FAFC" stroke="#20385A" stroke-width="2.7"/>
  <circle cx="33" cy="45" r="3.5" fill="#F8FAFC" stroke="#20385A" stroke-width="2.7"/>
  <defs>
    <linearGradient id="paint0_linear_0_1" x1="11.53" y1="28.43" x2="48.058" y2="28.43" gradientUnits="userSpaceOnUse">
      <stop stop-color="#800020"/>
      <stop offset="0.55" stop-color="#B33A5B"/>
      <stop offset="1" stop-color="#909EAE"/>
    </linearGradient>
  </defs>
</svg>
