<svg width="1440" height="720" viewBox="0 0 1440 720" fill="none" xmlns="http://www.w3.org/2000/svg">
  <rect width="1440" height="720" fill="#0B1F3B"/>
  <path d="M124 188C238 122 326 178 446 248C602 338 742 166 886 216C1036 268 1100 422 1328 334" stroke="url(#paint0_linear_0_2)" stroke-width="2"/>
  <path d="M120 538C262 454 370 508 484 450C634 372 714 508 866 474C1014 440 1188 304 1340 386" stroke="url(#paint1_linear_0_2)" stroke-width="2"/>
  <circle cx="124" cy="188" r="7" fill="#B33A5B"/>
  <circle cx="446" cy="248" r="7" fill="#E5E5E5"/>
  <circle cx="886" cy="216" r="7" fill="#909EAE"/>
  <circle cx="1328" cy="334" r="7" fill="#E5E5E5"/>
  <circle cx="120" cy="538" r="7" fill="#B33A5B"/>
  <circle cx="484" cy="450" r="7" fill="#909EAE"/>
  <circle cx="866" cy="474" r="7" fill="#E5E5E5"/>
  <circle cx="1340" cy="386" r="7" fill="#909EAE"/>
  <defs>
    <linearGradient id="paint0_linear_0_2" x1="124" y1="239.5" x2="1328" y2="239.5" gradientUnits="userSpaceOnUse">
      <stop stop-color="#800020"/>
      <stop offset="0.55" stop-color="#B33A5B"/>
      <stop offset="1" stop-color="#909EAE"/>
    </linearGradient>
    <linearGradient id="paint1_linear_0_2" x1="120" y1="460.5" x2="1340" y2="460.5" gradientUnits="userSpaceOnUse">
      <stop stop-color="#800020"/>
      <stop offset="0.55" stop-color="#B33A5B"/>
      <stop offset="1" stop-color="#909EAE"/>
    </linearGradient>
  </defs>
</svg>
